<svg width="28" height="25" viewBox="0 0 28 25" fill="none" xmlns="http://www.w3.org/2000/svg">
<path d="M26.8689 6.00626C26.7442 5.82608 26.5777 5.6788 26.3836 5.57705C26.1896 5.4753 25.9738 5.42211 25.7547 5.42204H7.22892L5.66467 1.66728C5.45956 1.17282 5.11226 0.750399 4.66678 0.453574C4.2213 0.156748 3.69771 -0.00111293 3.1624 5.90627e-06H0V2.71102H3.1624L9.59293 18.1435C9.69593 18.3904 9.86969 18.6013 10.0923 18.7496C10.315 18.898 10.5765 18.9771 10.8441 18.9771H21.6881C22.2534 18.9771 22.759 18.626 22.9582 18.0987L27.0248 7.25468C27.1016 7.04949 27.1276 6.82872 27.1004 6.61129C27.0733 6.39386 26.9938 6.18626 26.8689 6.00626Z" fill="#8E846B"/>
<path d="M11.5223 24.3991C12.6452 24.3991 13.5555 23.4888 13.5555 22.3658C13.5555 21.2429 12.6452 20.3326 11.5223 20.3326C10.3993 20.3326 9.48901 21.2429 9.48901 22.3658C9.48901 23.4888 10.3993 24.3991 11.5223 24.3991Z" fill="#8E846B"/>
<path d="M21.0101 24.3991C22.133 24.3991 23.0433 23.4888 23.0433 22.3658C23.0433 21.2429 22.133 20.3326 21.0101 20.3326C19.8871 20.3326 18.9768 21.2429 18.9768 22.3658C18.9768 23.4888 19.8871 24.3991 21.0101 24.3991Z" fill="#8E846B"/>
</svg>
